<?xml version="1.0" encoding="UTF-8" ?>
<svg width="800" height="7313" xmlns="http://www.w3.org/2000/svg">
<line x1="20.000" y1="20.000" x2="20.000" y2="1861.267" stroke="black" stroke-width="1.0" stroke-linecap="round" fill="none"/>
<line x1="20.000" y1="1861.267" x2="68.194" y2="3241.375" stroke="black" stroke-width="1.0" stroke-linecap="round" fill="none"/>
<line x1="68.194" y1="3241.375" x2="140.442" y2="4274.565" stroke="black" stroke-width="1.0" stroke-linecap="round" fill="none"/>
<line x1="140.442" y1="4274.565" x2="221.638" y2="5047.094" stroke="black" stroke-width="1.0" stroke-linecap="round" fill="none"/>
<line x1="221.638" y1="5047.094" x2="302.719" y2="5624.012" stroke="black" stroke-width="1.0" stroke-linecap="round" fill="none"/>
<line x1="302.719" y1="5624.012" x2="378.593" y2="6054.315" stroke="black" stroke-width="1.0" stroke-linecap="round" fill="none"/>
<line x1="378.593" y1="6054.315" x2="446.727" y2="6374.860" stroke="black" stroke-width="1.0" stroke-linecap="round" fill="none"/>
<line x1="446.727" y1="6374.860" x2="506.186" y2="6613.339" stroke="black" stroke-width="1.0" stroke-linecap="round" fill="none"/>
<line x1="506.186" y1="6613.339" x2="556.996" y2="6790.533" stroke="black" stroke-width="1.0" stroke-linecap="round" fill="none"/>
<line x1="556.996" y1="6790.533" x2="599.718" y2="6922.017" stroke="black" stroke-width="1.0" stroke-linecap="round" fill="none"/>
<line x1="599.718" y1="6922.017" x2="635.181" y2="7019.452" stroke="black" stroke-width="1.0" stroke-linecap="round" fill="none"/>
<line x1="635.181" y1="7019.452" x2="664.313" y2="7091.556" stroke="black" stroke-width="1.0" stroke-linecap="round" fill="none"/>
<line x1="664.313" y1="7091.556" x2="688.035" y2="7144.838" stroke="black" stroke-width="1.0" stroke-linecap="round" fill="none"/>
<line x1="688.035" y1="7144.838" x2="707.211" y2="7184.154" stroke="black" stroke-width="1.0" stroke-linecap="round" fill="none"/>
<line x1="707.211" y1="7184.154" x2="722.614" y2="7213.121" stroke="black" stroke-width="1.0" stroke-linecap="round" fill="none"/>
<line x1="722.614" y1="7213.121" x2="734.916" y2="7234.431" stroke="black" stroke-width="1.0" stroke-linecap="round" fill="none"/>
<line x1="734.916" y1="7234.431" x2="744.696" y2="7250.081" stroke="black" stroke-width="1.0" stroke-linecap="round" fill="none"/>
<line x1="744.696" y1="7250.081" x2="752.435" y2="7261.555" stroke="black" stroke-width="1.0" stroke-linecap="round" fill="none"/>
<line x1="752.435" y1="7261.555" x2="758.537" y2="7269.953" stroke="black" stroke-width="1.0" stroke-linecap="round" fill="none"/>
<line x1="758.537" y1="7269.953" x2="763.330" y2="7276.088" stroke="black" stroke-width="1.0" stroke-linecap="round" fill="none"/>
<line x1="763.330" y1="7276.088" x2="767.083" y2="7280.561" stroke="black" stroke-width="1.0" stroke-linecap="round" fill="none"/>
<line x1="767.083" y1="7280.561" x2="770.014" y2="7283.816" stroke="black" stroke-width="1.0" stroke-linecap="round" fill="none"/>
<line x1="770.014" y1="7283.816" x2="772.295" y2="7286.178" stroke="black" stroke-width="1.0" stroke-linecap="round" fill="none"/>
<line x1="772.295" y1="7286.178" x2="774.067" y2="7287.889" stroke="black" stroke-width="1.0" stroke-linecap="round" fill="none"/>
<line x1="774.067" y1="7287.889" x2="775.440" y2="7289.126" stroke="black" stroke-width="1.0" stroke-linecap="round" fill="none"/>
<line x1="775.440" y1="7289.126" x2="776.502" y2="7290.016" stroke="black" stroke-width="1.0" stroke-linecap="round" fill="none"/>
<line x1="776.502" y1="7290.016" x2="777.320" y2="7290.656" stroke="black" stroke-width="1.0" stroke-linecap="round" fill="none"/>
<line x1="777.320" y1="7290.656" x2="777.951" y2="7291.114" stroke="black" stroke-width="1.0" stroke-linecap="round" fill="none"/>
<line x1="777.951" y1="7291.114" x2="778.436" y2="7291.441" stroke="black" stroke-width="1.0" stroke-linecap="round" fill="none"/>
<line x1="778.436" y1="7291.441" x2="778.807" y2="7291.673" stroke="black" stroke-width="1.0" stroke-linecap="round" fill="none"/>
<line x1="778.807" y1="7291.673" x2="779.092" y2="7291.838" stroke="black" stroke-width="1.0" stroke-linecap="round" fill="none"/>
<line x1="779.092" y1="7291.838" x2="779.310" y2="7291.954" stroke="black" stroke-width="1.0" stroke-linecap="round" fill="none"/>
<line x1="779.310" y1="7291.954" x2="779.476" y2="7292.035" stroke="black" stroke-width="1.0" stroke-linecap="round" fill="none"/>
<line x1="779.476" y1="7292.035" x2="779.603" y2="7292.091" stroke="black" stroke-width="1.0" stroke-linecap="round" fill="none"/>
<line x1="779.603" y1="7292.091" x2="779.699" y2="7292.130" stroke="black" stroke-width="1.0" stroke-linecap="round" fill="none"/>
<line x1="779.699" y1="7292.130" x2="779.773" y2="7292.157" stroke="black" stroke-width="1.0" stroke-linecap="round" fill="none"/>
<line x1="779.773" y1="7292.157" x2="779.828" y2="7292.175" stroke="black" stroke-width="1.0" stroke-linecap="round" fill="none"/>
<line x1="779.828" y1="7292.175" x2="779.871" y2="7292.187" stroke="black" stroke-width="1.0" stroke-linecap="round" fill="none"/>
<line x1="779.871" y1="7292.187" x2="779.903" y2="7292.195" stroke="black" stroke-width="1.0" stroke-linecap="round" fill="none"/>
<line x1="779.903" y1="7292.195" x2="779.927" y2="7292.200" stroke="black" stroke-width="1.0" stroke-linecap="round" fill="none"/>
<line x1="779.927" y1="7292.200" x2="779.945" y2="7292.203" stroke="black" stroke-width="1.0" stroke-linecap="round" fill="none"/>
<line x1="779.945" y1="7292.203" x2="779.959" y2="7292.205" stroke="black" stroke-width="1.0" stroke-linecap="round" fill="none"/>
<line x1="779.959" y1="7292.205" x2="779.969" y2="7292.206" stroke="black" stroke-width="1.0" stroke-linecap="round" fill="none"/>
<line x1="779.969" y1="7292.206" x2="779.977" y2="7292.207" stroke="black" stroke-width="1.0" stroke-linecap="round" fill="none"/>
<line x1="779.977" y1="7292.207" x2="779.983" y2="7292.207" stroke="black" stroke-width="1.0" stroke-linecap="round" fill="none"/>
<line x1="779.983" y1="7292.207" x2="779.987" y2="7292.207" stroke="black" stroke-width="1.0" stroke-linecap="round" fill="none"/>
<line x1="779.987" y1="7292.207" x2="779.990" y2="7292.207" stroke="black" stroke-width="1.0" stroke-linecap="round" fill="none"/>
<line x1="779.990" y1="7292.207" x2="779.993" y2="7292.207" stroke="black" stroke-width="1.0" stroke-linecap="round" fill="none"/>
<line x1="779.993" y1="7292.207" x2="779.995" y2="7292.207" stroke="black" stroke-width="1.0" stroke-linecap="round" fill="none"/>
<line x1="779.995" y1="7292.207" x2="779.996" y2="7292.206" stroke="black" stroke-width="1.0" stroke-linecap="round" fill="none"/>
<line x1="779.996" y1="7292.206" x2="779.997" y2="7292.206" stroke="black" stroke-width="1.0" stroke-linecap="round" fill="none"/>
<line x1="779.997" y1="7292.206" x2="779.998" y2="7292.206" stroke="black" stroke-width="1.0" stroke-linecap="round" fill="none"/>
<line x1="779.998" y1="7292.206" x2="779.998" y2="7292.206" stroke="black" stroke-width="1.0" stroke-linecap="round" fill="none"/>
<line x1="779.998" y1="7292.206" x2="779.999" y2="7292.206" stroke="black" stroke-width="1.0" stroke-linecap="round" fill="none"/>
<line x1="779.999" y1="7292.206" x2="779.999" y2="7292.206" stroke="black" stroke-width="1.0" stroke-linecap="round" fill="none"/>
<line x1="779.999" y1="7292.206" x2="779.999" y2="7292.206" stroke="black" stroke-width="1.0" stroke-linecap="round" fill="none"/>
<line x1="779.999" y1="7292.206" x2="780.000" y2="7292.206" stroke="black" stroke-width="1.0" stroke-linecap="round" fill="none"/>
<line x1="780.000" y1="7292.206" x2="780.000" y2="7292.206" stroke="black" stroke-width="1.0" stroke-linecap="round" fill="none"/>
<line x1="780.000" y1="7292.206" x2="780.000" y2="7292.205" stroke="black" stroke-width="1.0" stroke-linecap="round" fill="none"/>
<line x1="780.000" y1="7292.205" x2="780.000" y2="7292.205" stroke="black" stroke-width="1.0" stroke-linecap="round" fill="none"/>
<line x1="780.000" y1="7292.205" x2="780.000" y2="7292.205" stroke="black" stroke-width="1.0" stroke-linecap="round" fill="none"/>
<line x1="780.000" y1="7292.205" x2="780.000" y2="7292.205" stroke="black" stroke-width="1.0" stroke-linecap="round" fill="none"/>
<line x1="780.000" y1="7292.205" x2="780.000" y2="7292.205" stroke="black" stroke-width="1.0" stroke-linecap="round" fill="none"/>
<line x1="780.000" y1="7292.205" x2="780.000" y2="7292.205" stroke="black" stroke-width="1.0" stroke-linecap="round" fill="none"/>
<line x1="780.000" y1="7292.205" x2="780.000" y2="7292.205" stroke="black" stroke-width="1.0" stroke-linecap="round" fill="none"/>
<line x1="780.000" y1="7292.205" x2="780.000" y2="7292.205" stroke="black" stroke-width="1.0" stroke-linecap="round" fill="none"/>
<line x1="780.000" y1="7292.205" x2="780.000" y2="7292.205" stroke="black" stroke-width="1.0" stroke-linecap="round" fill="none"/>
<line x1="780.000" y1="7292.205" x2="780.000" y2="7292.205" stroke="black" stroke-width="1.0" stroke-linecap="round" fill="none"/>
<line x1="780.000" y1="7292.205" x2="780.000" y2="7292.205" stroke="black" stroke-width="1.0" stroke-linecap="round" fill="none"/>
<line x1="780.000" y1="7292.205" x2="780.000" y2="7292.205" stroke="black" stroke-width="1.0" stroke-linecap="round" fill="none"/>
<line x1="780.000" y1="7292.205" x2="780.000" y2="7292.205" stroke="black" stroke-width="1.0" stroke-linecap="round" fill="none"/>
<line x1="780.000" y1="7292.205" x2="780.000" y2="7292.205" stroke="black" stroke-width="1.0" stroke-linecap="round" fill="none"/>
<line x1="780.000" y1="7292.205" x2="780.000" y2="7292.205" stroke="black" stroke-width="1.0" stroke-linecap="round" fill="none"/>
<line x1="780.000" y1="7292.205" x2="780.000" y2="7292.205" stroke="black" stroke-width="1.0" stroke-linecap="round" fill="none"/>
<line x1="780.000" y1="7292.205" x2="780.000" y2="7292.205" stroke="black" stroke-width="1.0" stroke-linecap="round" fill="none"/>
<line x1="780.000" y1="7292.205" x2="780.000" y2="7292.205" stroke="black" stroke-width="1.0" stroke-linecap="round" fill="none"/>
<line x1="780.000" y1="7292.205" x2="780.000" y2="7292.205" stroke="black" stroke-width="1.0" stroke-linecap="round" fill="none"/>
<line x1="780.000" y1="7292.205" x2="780.000" y2="7292.205" stroke="black" stroke-width="1.0" stroke-linecap="round" fill="none"/>
<line x1="780.000" y1="7292.205" x2="780.000" y2="7292.205" stroke="black" stroke-width="1.0" stroke-linecap="round" fill="none"/>
<line x1="780.000" y1="7292.205" x2="780.000" y2="7292.205" stroke="black" stroke-width="1.0" stroke-linecap="round" fill="none"/>
<line x1="780.000" y1="7292.205" x2="780.000" y2="7292.205" stroke="black" stroke-width="1.0" stroke-linecap="round" fill="none"/>
<line x1="780.000" y1="7292.205" x2="780.000" y2="7292.205" stroke="black" stroke-width="1.0" stroke-linecap="round" fill="none"/>
<line x1="780.000" y1="7292.205" x2="780.000" y2="7292.205" stroke="black" stroke-width="1.0" stroke-linecap="round" fill="none"/>
<line x1="780.000" y1="7292.205" x2="780.000" y2="7292.205" stroke="black" stroke-width="1.0" stroke-linecap="round" fill="none"/>
<line x1="780.000" y1="7292.205" x2="780.000" y2="7292.205" stroke="black" stroke-width="1.0" stroke-linecap="round" fill="none"/>
<line x1="780.000" y1="7292.205" x2="780.000" y2="7292.205" stroke="black" stroke-width="1.0" stroke-linecap="round" fill="none"/>
<line x1="780.000" y1="7292.205" x2="780.000" y2="7292.205" stroke="black" stroke-width="1.0" stroke-linecap="round" fill="none"/>
<line x1="780.000" y1="7292.205" x2="780.000" y2="7292.205" stroke="black" stroke-width="1.0" stroke-linecap="round" fill="none"/>
<line x1="780.000" y1="7292.205" x2="780.000" y2="7292.205" stroke="black" stroke-width="1.0" stroke-linecap="round" fill="none"/>
<line x1="780.000" y1="7292.205" x2="780.000" y2="7292.205" stroke="black" stroke-width="1.0" stroke-linecap="round" fill="none"/>
<line x1="780.000" y1="7292.205" x2="780.000" y2="7292.205" stroke="black" stroke-width="1.0" stroke-linecap="round" fill="none"/>
<line x1="780.000" y1="7292.205" x2="780.000" y2="7292.205" stroke="black" stroke-width="1.0" stroke-linecap="round" fill="none"/>
<line x1="780.000" y1="7292.205" x2="780.000" y2="7292.205" stroke="black" stroke-width="1.0" stroke-linecap="round" fill="none"/>
<line x1="780.000" y1="7292.205" x2="780.000" y2="7292.205" stroke="black" stroke-width="1.0" stroke-linecap="round" fill="none"/>
<line x1="780.000" y1="7292.205" x2="780.000" y2="7292.205" stroke="black" stroke-width="1.0" stroke-linecap="round" fill="none"/>
<line x1="780.000" y1="7292.205" x2="780.000" y2="7292.205" stroke="black" stroke-width="1.0" stroke-linecap="round" fill="none"/>
<line x1="780.000" y1="7292.205" x2="780.000" y2="7292.205" stroke="black" stroke-width="1.0" stroke-linecap="round" fill="none"/>
<line x1="780.000" y1="7292.205" x2="780.000" y2="7292.205" stroke="black" stroke-width="1.0" stroke-linecap="round" fill="none"/>
<line x1="780.000" y1="7292.205" x2="780.000" y2="7292.205" stroke="black" stroke-width="1.0" stroke-linecap="round" fill="none"/>
<line x1="780.000" y1="7292.205" x2="780.000" y2="7292.205" stroke="black" stroke-width="1.0" stroke-linecap="round" fill="none"/>
<line x1="780.000" y1="7292.205" x2="780.000" y2="7292.205" stroke="black" stroke-width="1.0" stroke-linecap="round" fill="none"/>
<line x1="780.000" y1="7292.205" x2="780.000" y2="7292.205" stroke="black" stroke-width="1.0" stroke-linecap="round" fill="none"/>
<line x1="780.000" y1="7292.205" x2="780.000" y2="7292.205" stroke="black" stroke-width="1.0" stroke-linecap="round" fill="none"/>
<line x1="780.000" y1="7292.205" x2="780.000" y2="7292.205" stroke="black" stroke-width="1.0" stroke-linecap="round" fill="none"/>
<line x1="780.000" y1="7292.205" x2="780.000" y2="7292.205" stroke="black" stroke-width="1.0" stroke-linecap="round" fill="none"/>
<line x1="780.000" y1="7292.205" x2="780.000" y2="7292.205" stroke="black" stroke-width="1.0" stroke-linecap="round" fill="none"/>
<line x1="780.000" y1="7292.205" x2="780.000" y2="7292.205" stroke="black" stroke-width="1.0" stroke-linecap="round" fill="none"/>
<line x1="780.000" y1="7292.205" x2="780.000" y2="7292.205" stroke="black" stroke-width="1.0" stroke-linecap="round" fill="none"/>
<line x1="780.000" y1="7292.205" x2="780.000" y2="7292.205" stroke="black" stroke-width="1.0" stroke-linecap="round" fill="none"/>
<line x1="780.000" y1="7292.205" x2="780.000" y2="7292.205" stroke="black" stroke-width="1.0" stroke-linecap="round" fill="none"/>
<line x1="780.000" y1="7292.205" x2="780.000" y2="7292.205" stroke="black" stroke-width="1.0" stroke-linecap="round" fill="none"/>
<line x1="780.000" y1="7292.205" x2="780.000" y2="7292.205" stroke="black" stroke-width="1.0" stroke-linecap="round" fill="none"/>
<line x1="780.000" y1="7292.205" x2="780.000" y2="7292.205" stroke="black" stroke-width="1.0" stroke-linecap="round" fill="none"/>
<line x1="780.000" y1="7292.205" x2="780.000" y2="7292.205" stroke="black" stroke-width="1.0" stroke-linecap="round" fill="none"/>
<line x1="780.000" y1="7292.205" x2="780.000" y2="7292.205" stroke="black" stroke-width="1.0" stroke-linecap="round" fill="none"/>
<line x1="780.000" y1="7292.205" x2="780.000" y2="7292.205" stroke="black" stroke-width="1.0" stroke-linecap="round" fill="none"/>
<line x1="780.000" y1="7292.205" x2="780.000" y2="7292.205" stroke="black" stroke-width="1.0" stroke-linecap="round" fill="none"/>
<line x1="780.000" y1="7292.205" x2="780.000" y2="7292.205" stroke="black" stroke-width="1.0" stroke-linecap="round" fill="none"/>
<line x1="780.000" y1="7292.205" x2="780.000" y2="7292.205" stroke="black" stroke-width="1.0" stroke-linecap="round" fill="none"/>
<line x1="780.000" y1="7292.205" x2="780.000" y2="7292.205" stroke="black" stroke-width="1.0" stroke-linecap="round" fill="none"/>
<line x1="780.000" y1="7292.205" x2="780.000" y2="7292.205" stroke="black" stroke-width="1.0" stroke-linecap="round" fill="none"/>
<line x1="780.000" y1="7292.205" x2="780.000" y2="7292.205" stroke="black" stroke-width="1.0" stroke-linecap="round" fill="none"/>
<line x1="780.000" y1="7292.205" x2="780.000" y2="7292.205" stroke="black" stroke-width="1.0" stroke-linecap="round" fill="none"/>
<line x1="780.000" y1="7292.205" x2="780.000" y2="7292.205" stroke="black" stroke-width="1.0" stroke-linecap="round" fill="none"/>
<line x1="780.000" y1="7292.205" x2="780.000" y2="7292.205" stroke="black" stroke-width="1.0" stroke-linecap="round" fill="none"/>
<line x1="780.000" y1="7292.205" x2="780.000" y2="7292.205" stroke="black" stroke-width="1.0" stroke-linecap="round" fill="none"/>
<line x1="780.000" y1="7292.205" x2="780.000" y2="7292.205" stroke="black" stroke-width="1.0" stroke-linecap="round" fill="none"/>
<line x1="780.000" y1="7292.205" x2="780.000" y2="7292.205" stroke="black" stroke-width="1.0" stroke-linecap="round" fill="none"/>
<line x1="780.000" y1="7292.205" x2="780.000" y2="7292.205" stroke="black" stroke-width="1.0" stroke-linecap="round" fill="none"/>
<line x1="780.000" y1="7292.205" x2="780.000" y2="7292.205" stroke="black" stroke-width="1.0" stroke-linecap="round" fill="none"/>
<line x1="780.000" y1="7292.205" x2="780.000" y2="7292.205" stroke="black" stroke-width="1.0" stroke-linecap="round" fill="none"/>
<line x1="780.000" y1="7292.205" x2="780.000" y2="7292.205" stroke="black" stroke-width="1.0" stroke-linecap="round" fill="none"/>
<line x1="780.000" y1="7292.205" x2="780.000" y2="7292.205" stroke="black" stroke-width="1.0" stroke-linecap="round" fill="none"/>
<line x1="780.000" y1="7292.205" x2="780.000" y2="7292.205" stroke="black" stroke-width="1.0" stroke-linecap="round" fill="none"/>
<line x1="780.000" y1="7292.205" x2="780.000" y2="7292.205" stroke="black" stroke-width="1.0" stroke-linecap="round" fill="none"/>
<line x1="780.000" y1="7292.205" x2="780.000" y2="7292.205" stroke="black" stroke-width="1.0" stroke-linecap="round" fill="none"/>
<line x1="780.000" y1="7292.205" x2="780.000" y2="7292.205" stroke="black" stroke-width="1.0" stroke-linecap="round" fill="none"/>
<line x1="780.000" y1="7292.205" x2="780.000" y2="7292.205" stroke="black" stroke-width="1.0" stroke-linecap="round" fill="none"/>
<line x1="780.000" y1="7292.205" x2="780.000" y2="7292.205" stroke="black" stroke-width="1.0" stroke-linecap="round" fill="none"/>
<line x1="780.000" y1="7292.205" x2="780.000" y2="7292.205" stroke="black" stroke-width="1.0" stroke-linecap="round" fill="none"/>
<line x1="780.000" y1="7292.205" x2="780.000" y2="7292.205" stroke="black" stroke-width="1.0" stroke-linecap="round" fill="none"/>
<line x1="780.000" y1="7292.205" x2="780.000" y2="7292.205" stroke="black" stroke-width="1.0" stroke-linecap="round" fill="none"/>
<line x1="780.000" y1="7292.205" x2="780.000" y2="7292.205" stroke="black" stroke-width="1.0" stroke-linecap="round" fill="none"/>
<line x1="780.000" y1="7292.205" x2="780.000" y2="7292.205" stroke="black" stroke-width="1.0" stroke-linecap="round" fill="none"/>
<line x1="780.000" y1="7292.205" x2="780.000" y2="7292.205" stroke="black" stroke-width="1.0" stroke-linecap="round" fill="none"/>
<line x1="780.000" y1="7292.205" x2="780.000" y2="7292.205" stroke="black" stroke-width="1.0" stroke-linecap="round" fill="none"/>
<line x1="780.000" y1="7292.205" x2="780.000" y2="7292.205" stroke="black" stroke-width="1.0" stroke-linecap="round" fill="none"/>
<line x1="780.000" y1="7292.205" x2="780.000" y2="7292.205" stroke="black" stroke-width="1.0" stroke-linecap="round" fill="none"/>
<line x1="780.000" y1="7292.205" x2="780.000" y2="7292.205" stroke="black" stroke-width="1.0" stroke-linecap="round" fill="none"/>
<line x1="780.000" y1="7292.205" x2="780.000" y2="7292.205" stroke="black" stroke-width="1.0" stroke-linecap="round" fill="none"/>
<line x1="780.000" y1="7292.205" x2="780.000" y2="7292.205" stroke="black" stroke-width="1.0" stroke-linecap="round" fill="none"/>
<line x1="780.000" y1="7292.205" x2="780.000" y2="7292.205" stroke="black" stroke-width="1.0" stroke-linecap="round" fill="none"/>
<line x1="780.000" y1="7292.205" x2="780.000" y2="7292.205" stroke="black" stroke-width="1.0" stroke-linecap="round" fill="none"/>
<line x1="780.000" y1="7292.205" x2="780.000" y2="7292.205" stroke="black" stroke-width="1.0" stroke-linecap="round" fill="none"/>
<line x1="780.000" y1="7292.205" x2="780.000" y2="7292.205" stroke="black" stroke-width="1.0" stroke-linecap="round" fill="none"/>
<line x1="780.000" y1="7292.205" x2="780.000" y2="7292.205" stroke="black" stroke-width="1.0" stroke-linecap="round" fill="none"/>
<line x1="780.000" y1="7292.205" x2="780.000" y2="7292.205" stroke="black" stroke-width="1.0" stroke-linecap="round" fill="none"/>
<line x1="780.000" y1="7292.205" x2="780.000" y2="7292.205" stroke="black" stroke-width="1.0" stroke-linecap="round" fill="none"/>
<line x1="780.000" y1="7292.205" x2="780.000" y2="7292.205" stroke="black" stroke-width="1.0" stroke-linecap="round" fill="none"/>
<line x1="780.000" y1="7292.205" x2="780.000" y2="7292.205" stroke="black" stroke-width="1.0" stroke-linecap="round" fill="none"/>
<line x1="780.000" y1="7292.205" x2="780.000" y2="7292.205" stroke="black" stroke-width="1.0" stroke-linecap="round" fill="none"/>
<line x1="780.000" y1="7292.205" x2="780.000" y2="7292.205" stroke="black" stroke-width="1.0" stroke-linecap="round" fill="none"/>
<line x1="780.000" y1="7292.205" x2="780.000" y2="7292.205" stroke="black" stroke-width="1.0" stroke-linecap="round" fill="none"/>
<line x1="780.000" y1="7292.205" x2="780.000" y2="7292.205" stroke="black" stroke-width="1.0" stroke-linecap="round" fill="none"/>
<line x1="780.000" y1="7292.205" x2="780.000" y2="7292.205" stroke="black" stroke-width="1.0" stroke-linecap="round" fill="none"/>
<line x1="780.000" y1="7292.205" x2="780.000" y2="7292.205" stroke="black" stroke-width="1.0" stroke-linecap="round" fill="none"/>
<line x1="780.000" y1="7292.205" x2="780.000" y2="7292.205" stroke="black" stroke-width="1.0" stroke-linecap="round" fill="none"/>
<line x1="780.000" y1="7292.205" x2="780.000" y2="7292.205" stroke="black" stroke-width="1.0" stroke-linecap="round" fill="none"/>
<line x1="780.000" y1="7292.205" x2="780.000" y2="7292.205" stroke="black" stroke-width="1.0" stroke-linecap="round" fill="none"/>
<line x1="780.000" y1="7292.205" x2="780.000" y2="7292.205" stroke="black" stroke-width="1.0" stroke-linecap="round" fill="none"/>
<line x1="780.000" y1="7292.205" x2="780.000" y2="7292.205" stroke="black" stroke-width="1.0" stroke-linecap="round" fill="none"/>
<line x1="780.000" y1="7292.205" x2="780.000" y2="7292.205" stroke="black" stroke-width="1.0" stroke-linecap="round" fill="none"/>
<line x1="780.000" y1="7292.205" x2="780.000" y2="7292.205" stroke="black" stroke-width="1.0" stroke-linecap="round" fill="none"/>
<line x1="780.000" y1="7292.205" x2="780.000" y2="7292.205" stroke="black" stroke-width="1.0" stroke-linecap="round" fill="none"/>
<line x1="780.000" y1="7292.205" x2="780.000" y2="7292.205" stroke="black" stroke-width="1.0" stroke-linecap="round" fill="none"/>
<line x1="780.000" y1="7292.205" x2="780.000" y2="7292.205" stroke="black" stroke-width="1.0" stroke-linecap="round" fill="none"/>
<line x1="780.000" y1="7292.205" x2="780.000" y2="7292.205" stroke="black" stroke-width="1.0" stroke-linecap="round" fill="none"/>
<line x1="780.000" y1="7292.205" x2="780.000" y2="7292.205" stroke="black" stroke-width="1.0" stroke-linecap="round" fill="none"/>
<line x1="780.000" y1="7292.205" x2="780.000" y2="7292.205" stroke="black" stroke-width="1.0" stroke-linecap="round" fill="none"/>
<line x1="780.000" y1="7292.205" x2="780.000" y2="7292.205" stroke="black" stroke-width="1.0" stroke-linecap="round" fill="none"/>
<line x1="780.000" y1="7292.205" x2="780.000" y2="7292.205" stroke="black" stroke-width="1.0" stroke-linecap="round" fill="none"/>
<line x1="780.000" y1="7292.205" x2="780.000" y2="7292.205" stroke="black" stroke-width="1.0" stroke-linecap="round" fill="none"/>
<line x1="780.000" y1="7292.205" x2="780.000" y2="7292.205" stroke="black" stroke-width="1.0" stroke-linecap="round" fill="none"/>
<line x1="780.000" y1="7292.205" x2="780.000" y2="7292.205" stroke="black" stroke-width="1.0" stroke-linecap="round" fill="none"/>
<line x1="780.000" y1="7292.205" x2="780.000" y2="7292.205" stroke="black" stroke-width="1.0" stroke-linecap="round" fill="none"/>
<line x1="780.000" y1="7292.205" x2="780.000" y2="7292.205" stroke="black" stroke-width="1.0" stroke-linecap="round" fill="none"/>
<line x1="780.000" y1="7292.205" x2="780.000" y2="7292.205" stroke="black" stroke-width="1.0" stroke-linecap="round" fill="none"/>
<line x1="780.000" y1="7292.205" x2="780.000" y2="7292.205" stroke="black" stroke-width="1.0" stroke-linecap="round" fill="none"/>
<line x1="780.000" y1="7292.205" x2="780.000" y2="7292.205" stroke="black" stroke-width="1.0" stroke-linecap="round" fill="none"/>
<line x1="780.000" y1="7292.205" x2="780.000" y2="7292.205" stroke="black" stroke-width="1.0" stroke-linecap="round" fill="none"/>
<line x1="780.000" y1="7292.205" x2="780.000" y2="7292.205" stroke="black" stroke-width="1.0" stroke-linecap="round" fill="none"/>
<line x1="780.000" y1="7292.205" x2="780.000" y2="7292.205" stroke="black" stroke-width="1.0" stroke-linecap="round" fill="none"/>
<line x1="780.000" y1="7292.205" x2="780.000" y2="7292.205" stroke="black" stroke-width="1.0" stroke-linecap="round" fill="none"/>
<line x1="780.000" y1="7292.205" x2="780.000" y2="7292.205" stroke="black" stroke-width="1.0" stroke-linecap="round" fill="none"/>
<line x1="780.000" y1="7292.205" x2="780.000" y2="7292.205" stroke="black" stroke-width="1.0" stroke-linecap="round" fill="none"/>
<line x1="780.000" y1="7292.205" x2="780.000" y2="7292.205" stroke="black" stroke-width="1.0" stroke-linecap="round" fill="none"/>
<line x1="780.000" y1="7292.205" x2="780.000" y2="7292.205" stroke="black" stroke-width="1.0" stroke-linecap="round" fill="none"/>
<line x1="780.000" y1="7292.205" x2="780.000" y2="7292.205" stroke="black" stroke-width="1.0" stroke-linecap="round" fill="none"/>
<line x1="780.000" y1="7292.205" x2="780.000" y2="7292.205" stroke="black" stroke-width="1.0" stroke-linecap="round" fill="none"/>
<line x1="780.000" y1="7292.205" x2="780.000" y2="7292.205" stroke="black" stroke-width="1.0" stroke-linecap="round" fill="none"/>
<line x1="780.000" y1="7292.205" x2="780.000" y2="7292.205" stroke="black" stroke-width="1.0" stroke-linecap="round" fill="none"/>
<line x1="780.000" y1="7292.205" x2="780.000" y2="7292.205" stroke="black" stroke-width="1.0" stroke-linecap="round" fill="none"/>
<line x1="780.000" y1="7292.205" x2="780.000" y2="7292.205" stroke="black" stroke-width="1.0" stroke-linecap="round" fill="none"/>
<line x1="780.000" y1="7292.205" x2="780.000" y2="7292.205" stroke="black" stroke-width="1.0" stroke-linecap="round" fill="none"/>
<line x1="780.000" y1="7292.205" x2="780.000" y2="7292.205" stroke="black" stroke-width="1.0" stroke-linecap="round" fill="none"/>
<line x1="780.000" y1="7292.205" x2="780.000" y2="7292.205" stroke="black" stroke-width="1.0" stroke-linecap="round" fill="none"/>
<line x1="780.000" y1="7292.205" x2="780.000" y2="7292.205" stroke="black" stroke-width="1.0" stroke-linecap="round" fill="none"/>
<line x1="780.000" y1="7292.205" x2="780.000" y2="7292.205" stroke="black" stroke-width="1.0" stroke-linecap="round" fill="none"/>
<line x1="780.000" y1="7292.205" x2="780.000" y2="7292.205" stroke="black" stroke-width="1.0" stroke-linecap="round" fill="none"/>
<line x1="780.000" y1="7292.205" x2="780.000" y2="7292.205" stroke="black" stroke-width="1.0" stroke-linecap="round" fill="none"/>
<line x1="780.000" y1="7292.205" x2="780.000" y2="7292.205" stroke="black" stroke-width="1.0" stroke-linecap="round" fill="none"/>
<line x1="780.000" y1="7292.205" x2="780.000" y2="7292.205" stroke="black" stroke-width="1.0" stroke-linecap="round" fill="none"/>
<line x1="780.000" y1="7292.205" x2="780.000" y2="7292.205" stroke="black" stroke-width="1.0" stroke-linecap="round" fill="none"/>
<line x1="780.000" y1="7292.205" x2="780.000" y2="7292.205" stroke="black" stroke-width="1.0" stroke-linecap="round" fill="none"/>
<line x1="780.000" y1="7292.205" x2="780.000" y2="7292.205" stroke="black" stroke-width="1.0" stroke-linecap="round" fill="none"/>
<line x1="780.000" y1="7292.205" x2="780.000" y2="7292.205" stroke="black" stroke-width="1.0" stroke-linecap="round" fill="none"/>
<line x1="780.000" y1="7292.205" x2="780.000" y2="7292.205" stroke="black" stroke-width="1.0" stroke-linecap="round" fill="none"/>
<line x1="780.000" y1="7292.205" x2="780.000" y2="7292.205" stroke="black" stroke-width="1.0" stroke-linecap="round" fill="none"/>
<line x1="780.000" y1="7292.205" x2="780.000" y2="7292.205" stroke="black" stroke-width="1.0" stroke-linecap="round" fill="none"/>
<line x1="780.000" y1="7292.205" x2="780.000" y2="7292.205" stroke="black" stroke-width="1.0" stroke-linecap="round" fill="none"/>
<line x1="780.000" y1="7292.205" x2="780.000" y2="7292.205" stroke="black" stroke-width="1.0" stroke-linecap="round" fill="none"/>
<line x1="780.000" y1="7292.205" x2="780.000" y2="7292.205" stroke="black" stroke-width="1.0" stroke-linecap="round" fill="none"/>
<line x1="780.000" y1="7292.205" x2="780.000" y2="7292.205" stroke="black" stroke-width="1.0" stroke-linecap="round" fill="none"/>
<line x1="780.000" y1="7292.205" x2="780.000" y2="7292.205" stroke="black" stroke-width="1.0" stroke-linecap="round" fill="none"/>
<line x1="780.000" y1="7292.205" x2="780.000" y2="7292.205" stroke="black" stroke-width="1.0" stroke-linecap="round" fill="none"/>
<line x1="780.000" y1="7292.205" x2="780.000" y2="7292.205" stroke="black" stroke-width="1.0" stroke-linecap="round" fill="none"/>
<line x1="780.000" y1="7292.205" x2="780.000" y2="7292.205" stroke="black" stroke-width="1.0" stroke-linecap="round" fill="none"/>
<line x1="780.000" y1="7292.205" x2="780.000" y2="7292.205" stroke="black" stroke-width="1.0" stroke-linecap="round" fill="none"/>
<line x1="780.000" y1="7292.205" x2="780.000" y2="7292.205" stroke="black" stroke-width="1.0" stroke-linecap="round" fill="none"/>
<line x1="780.000" y1="7292.205" x2="780.000" y2="7292.205" stroke="black" stroke-width="1.0" stroke-linecap="round" fill="none"/>
<line x1="780.000" y1="7292.205" x2="780.000" y2="7292.205" stroke="black" stroke-width="1.0" stroke-linecap="round" fill="none"/>
<line x1="780.000" y1="7292.205" x2="780.000" y2="7292.205" stroke="black" stroke-width="1.0" stroke-linecap="round" fill="none"/>
<line x1="780.000" y1="7292.205" x2="780.000" y2="7292.205" stroke="black" stroke-width="1.0" stroke-linecap="round" fill="none"/>
<line x1="780.000" y1="7292.205" x2="780.000" y2="7292.205" stroke="black" stroke-width="1.0" stroke-linecap="round" fill="none"/>
<line x1="780.000" y1="7292.205" x2="780.000" y2="7292.205" stroke="black" stroke-width="1.0" stroke-linecap="round" fill="none"/>
<line x1="780.000" y1="7292.205" x2="780.000" y2="7292.205" stroke="black" stroke-width="1.0" stroke-linecap="round" fill="none"/>
<line x1="780.000" y1="7292.205" x2="780.000" y2="7292.205" stroke="black" stroke-width="1.0" stroke-linecap="round" fill="none"/>
<line x1="780.000" y1="7292.205" x2="780.000" y2="7292.205" stroke="black" stroke-width="1.0" stroke-linecap="round" fill="none"/>
<line x1="780.000" y1="7292.205" x2="780.000" y2="7292.205" stroke="black" stroke-width="1.0" stroke-linecap="round" fill="none"/>
<line x1="780.000" y1="7292.205" x2="780.000" y2="7292.205" stroke="black" stroke-width="1.0" stroke-linecap="round" fill="none"/>
<line x1="780.000" y1="7292.205" x2="780.000" y2="7292.205" stroke="black" stroke-width="1.0" stroke-linecap="round" fill="none"/>
<line x1="780.000" y1="7292.205" x2="780.000" y2="7292.205" stroke="black" stroke-width="1.0" stroke-linecap="round" fill="none"/>
<line x1="780.000" y1="7292.205" x2="780.000" y2="7292.205" stroke="black" stroke-width="1.0" stroke-linecap="round" fill="none"/>
<line x1="780.000" y1="7292.205" x2="780.000" y2="7292.205" stroke="black" stroke-width="1.0" stroke-linecap="round" fill="none"/>
<line x1="780.000" y1="7292.205" x2="780.000" y2="7292.205" stroke="black" stroke-width="1.0" stroke-linecap="round" fill="none"/>
<line x1="780.000" y1="7292.205" x2="780.000" y2="7292.205" stroke="black" stroke-width="1.0" stroke-linecap="round" fill="none"/>
<line x1="780.000" y1="7292.205" x2="780.000" y2="7292.205" stroke="black" stroke-width="1.0" stroke-linecap="round" fill="none"/>
<line x1="780.000" y1="7292.205" x2="780.000" y2="7292.205" stroke="black" stroke-width="1.0" stroke-linecap="round" fill="none"/>
<line x1="780.000" y1="7292.205" x2="780.000" y2="7292.205" stroke="black" stroke-width="1.0" stroke-linecap="round" fill="none"/>
<line x1="780.000" y1="7292.205" x2="780.000" y2="7292.205" stroke="black" stroke-width="1.0" stroke-linecap="round" fill="none"/>
<line x1="780.000" y1="7292.205" x2="780.000" y2="7292.205" stroke="black" stroke-width="1.0" stroke-linecap="round" fill="none"/>
<line x1="780.000" y1="7292.205" x2="780.000" y2="7292.205" stroke="black" stroke-width="1.0" stroke-linecap="round" fill="none"/>
<line x1="780.000" y1="7292.205" x2="780.000" y2="7292.205" stroke="black" stroke-width="1.0" stroke-linecap="round" fill="none"/>
<line x1="780.000" y1="7292.205" x2="780.000" y2="7292.205" stroke="black" stroke-width="1.0" stroke-linecap="round" fill="none"/>
<line x1="780.000" y1="7292.205" x2="780.000" y2="7292.205" stroke="black" stroke-width="1.0" stroke-linecap="round" fill="none"/>
<line x1="780.000" y1="7292.205" x2="780.000" y2="7292.205" stroke="black" stroke-width="1.0" stroke-linecap="round" fill="none"/>
<line x1="780.000" y1="7292.205" x2="780.000" y2="7292.205" stroke="black" stroke-width="1.0" stroke-linecap="round" fill="none"/>
<line x1="780.000" y1="7292.205" x2="780.000" y2="7292.205" stroke="black" stroke-width="1.0" stroke-linecap="round" fill="none"/>
<line x1="780.000" y1="7292.205" x2="780.000" y2="7292.205" stroke="black" stroke-width="1.0" stroke-linecap="round" fill="none"/>
<line x1="780.000" y1="7292.205" x2="780.000" y2="7292.205" stroke="black" stroke-width="1.0" stroke-linecap="round" fill="none"/>
<line x1="780.000" y1="7292.205" x2="780.000" y2="7292.205" stroke="black" stroke-width="1.0" stroke-linecap="round" fill="none"/>
<line x1="780.000" y1="7292.205" x2="780.000" y2="7292.205" stroke="black" stroke-width="1.0" stroke-linecap="round" fill="none"/>
<line x1="780.000" y1="7292.205" x2="780.000" y2="7292.205" stroke="black" stroke-width="1.0" stroke-linecap="round" fill="none"/>
<line x1="780.000" y1="7292.205" x2="780.000" y2="7292.205" stroke="black" stroke-width="1.0" stroke-linecap="round" fill="none"/>
<line x1="780.000" y1="7292.205" x2="780.000" y2="7292.205" stroke="black" stroke-width="1.0" stroke-linecap="round" fill="none"/>
<line x1="780.000" y1="7292.205" x2="780.000" y2="7292.205" stroke="black" stroke-width="1.0" stroke-linecap="round" fill="none"/>
<line x1="780.000" y1="7292.205" x2="780.000" y2="7292.205" stroke="black" stroke-width="1.0" stroke-linecap="round" fill="none"/>
<line x1="780.000" y1="7292.205" x2="780.000" y2="7292.205" stroke="black" stroke-width="1.0" stroke-linecap="round" fill="none"/>
<line x1="780.000" y1="7292.205" x2="780.000" y2="7292.205" stroke="black" stroke-width="1.0" stroke-linecap="round" fill="none"/>
<line x1="780.000" y1="7292.205" x2="780.000" y2="7292.205" stroke="black" stroke-width="1.0" stroke-linecap="round" fill="none"/>
<line x1="780.000" y1="7292.205" x2="780.000" y2="7292.205" stroke="black" stroke-width="1.0" stroke-linecap="round" fill="none"/>
<line x1="780.000" y1="7292.205" x2="780.000" y2="7292.205" stroke="black" stroke-width="1.0" stroke-linecap="round" fill="none"/>
<line x1="780.000" y1="7292.205" x2="780.000" y2="7292.205" stroke="black" stroke-width="1.0" stroke-linecap="round" fill="none"/>
<line x1="780.000" y1="7292.205" x2="780.000" y2="7292.205" stroke="black" stroke-width="1.0" stroke-linecap="round" fill="none"/>
<line x1="780.000" y1="7292.205" x2="780.000" y2="7292.205" stroke="black" stroke-width="1.0" stroke-linecap="round" fill="none"/>
<line x1="780.000" y1="7292.205" x2="780.000" y2="7292.205" stroke="black" stroke-width="1.0" stroke-linecap="round" fill="none"/>
<line x1="780.000" y1="7292.205" x2="780.000" y2="7292.205" stroke="black" stroke-width="1.0" stroke-linecap="round" fill="none"/>
<line x1="780.000" y1="7292.205" x2="780.000" y2="7292.205" stroke="black" stroke-width="1.0" stroke-linecap="round" fill="none"/>
<line x1="780.000" y1="7292.205" x2="780.000" y2="7292.205" stroke="black" stroke-width="1.0" stroke-linecap="round" fill="none"/>
<line x1="780.000" y1="7292.205" x2="780.000" y2="7292.205" stroke="black" stroke-width="1.0" stroke-linecap="round" fill="none"/>
<line x1="780.000" y1="7292.205" x2="780.000" y2="7292.205" stroke="black" stroke-width="1.0" stroke-linecap="round" fill="none"/>
<line x1="780.000" y1="7292.205" x2="780.000" y2="7292.205" stroke="black" stroke-width="1.0" stroke-linecap="round" fill="none"/>
<line x1="780.000" y1="7292.205" x2="780.000" y2="7292.205" stroke="black" stroke-width="1.0" stroke-linecap="round" fill="none"/>
<line x1="780.000" y1="7292.205" x2="780.000" y2="7292.205" stroke="black" stroke-width="1.0" stroke-linecap="round" fill="none"/>
<line x1="780.000" y1="7292.205" x2="780.000" y2="7292.205" stroke="black" stroke-width="1.0" stroke-linecap="round" fill="none"/>
<line x1="780.000" y1="7292.205" x2="780.000" y2="7292.205" stroke="black" stroke-width="1.0" stroke-linecap="round" fill="none"/>
<line x1="780.000" y1="7292.205" x2="780.000" y2="7292.205" stroke="black" stroke-width="1.0" stroke-linecap="round" fill="none"/>
<line x1="780.000" y1="7292.205" x2="780.000" y2="7292.205" stroke="black" stroke-width="1.0" stroke-linecap="round" fill="none"/>
<line x1="780.000" y1="7292.205" x2="780.000" y2="7292.205" stroke="black" stroke-width="1.0" stroke-linecap="round" fill="none"/>
<line x1="780.000" y1="7292.205" x2="780.000" y2="7292.205" stroke="black" stroke-width="1.0" stroke-linecap="round" fill="none"/>
<line x1="780.000" y1="7292.205" x2="780.000" y2="7292.205" stroke="black" stroke-width="1.0" stroke-linecap="round" fill="none"/>
<line x1="780.000" y1="7292.205" x2="780.000" y2="7292.205" stroke="black" stroke-width="1.0" stroke-linecap="round" fill="none"/>
<line x1="780.000" y1="7292.205" x2="780.000" y2="7292.205" stroke="black" stroke-width="1.0" stroke-linecap="round" fill="none"/>
<line x1="780.000" y1="7292.205" x2="780.000" y2="7292.205" stroke="black" stroke-width="1.0" stroke-linecap="round" fill="none"/>
<line x1="780.000" y1="7292.205" x2="780.000" y2="7292.205" stroke="black" stroke-width="1.0" stroke-linecap="round" fill="none"/>
<line x1="780.000" y1="7292.205" x2="780.000" y2="7292.205" stroke="black" stroke-width="1.0" stroke-linecap="round" fill="none"/>
<line x1="780.000" y1="7292.205" x2="780.000" y2="7292.205" stroke="black" stroke-width="1.0" stroke-linecap="round" fill="none"/>
<line x1="780.000" y1="7292.205" x2="780.000" y2="7292.205" stroke="black" stroke-width="1.0" stroke-linecap="round" fill="none"/>
<line x1="780.000" y1="7292.205" x2="780.000" y2="7292.205" stroke="black" stroke-width="1.0" stroke-linecap="round" fill="none"/>
<line x1="780.000" y1="7292.205" x2="780.000" y2="7292.205" stroke="black" stroke-width="1.0" stroke-linecap="round" fill="none"/>
</svg>
